<?xml version="1.0" encoding="UTF-8" standalone="no"?>
<!-- Created with Inkscape (http://www.inkscape.org/) -->

<svg
   width="143.93358mm"
   height="154.89301mm"
   viewBox="0 0 143.93358 154.89301"
   version="1.1"
   id="svg1"
   xml:space="preserve"
   xmlns:inkscape="http://www.inkscape.org/namespaces/inkscape"
   xmlns:sodipodi="http://sodipodi.sourceforge.net/DTD/sodipodi-0.dtd"
   xmlns="http://www.w3.org/2000/svg"
   xmlns:svg="http://www.w3.org/2000/svg"><sodipodi:namedview
     id="namedview1"
     pagecolor="#ffffff"
     bordercolor="#000000"
     borderopacity="0.25"
     inkscape:showpageshadow="2"
     inkscape:pageopacity="0.0"
     inkscape:pagecheckerboard="0"
     inkscape:deskcolor="#d1d1d1"
     inkscape:document-units="mm" /><defs
     id="defs1" /><g
     inkscape:label="Camada 1"
     inkscape:groupmode="layer"
     id="layer1"
     transform="translate(-37.992623,-61.738001)"><ellipse
       style="fill:#ffffff;stroke-width:0.631759"
       id="path2"
       cx="109.95941"
       cy="139.18449"
       rx="71.966789"
       ry="77.446495"
       inkscape:export-filename="gleison icon 48x52.png"
       inkscape:export-xdpi="8.4705744"
       inkscape:export-ydpi="8.4705744" /><path
       style="fill:#000000"
       d="m 108.13528,213.56758 c -0.23602,-0.0183 -0.95053,-0.0733 -1.58779,-0.12218 -5.67865,-0.436 -10.948827,-2.32332 -15.494967,-5.54895 -1.86452,-1.32293 -4.24233,-3.36407 -5.74714,-4.93339 -0.37763,-0.39383 -1.20801,-1.25767 -1.84527,-1.91964 -3.76456,-3.91052 -6.93522,-7.69286 -9.02752,-10.76911 -2.30935,-3.39536 -3.90294,-6.72394 -5.04165,-10.5306 -0.8343,-2.78905 -1.19505,-4.54524 -1.80178,-8.7714 -0.33964,-2.36579 -0.37628,-2.49369 -0.71521,-2.49666 -0.0827,-7.2e-4 -0.48823,-0.11808 -0.90118,-0.2608 -2.00909,-0.69435 -3.7488,-2.3018 -5.29389,-4.89142 -1.40481,-2.3545 -2.60892,-5.5105 -3.56877,-9.35379 -1.35014,-5.40604 -1.87858,-8.70708 -1.77236,-11.07164 0.0918,-2.04365 0.41006,-3.47084 1.06769,-4.78783 0.83812,-1.67844 1.90274,-2.68049 3.35116,-3.15425 0.34143,-0.11168 0.43885,-0.18045 0.4058,-0.28649 -0.0783,-0.25113 -0.7177,-3.28849 -0.94181,-4.47378 -1.40384,-7.42455 -1.4365,-15.67991 -0.0888,-22.45295 0.11608,-0.5834 0.21106,-1.12201 0.21106,-1.19692 0,-0.21544 -1.08906,0.4143 -1.98199,1.14609 l -0.76446,0.62649 v -0.98504 c 0,-2.90033 0.93092,-6.11977 2.49306,-8.621858 1.51076,-2.4198 3.38961,-4.31909 5.98214,-6.04721 1.19672,-0.79772 1.20194,-0.74676 -0.0997,-0.97429 -1.5684,-0.27417 -3.88809,-0.034 -5.46672,0.56601 -0.2545,0.0967 -0.49426,0.17589 -0.53279,0.17592 -0.13617,8e-5 0.76454,-1.05926 1.46188,-1.71936 1.17811,-1.11517 2.51429,-1.82762 4.25656,-2.269586 1.02344,-0.259618 2.64057,-0.418278 3.47054,-0.340504 l 0.64803,0.06073 -0.0545,-0.376048 c -0.28428,-1.963541 -0.27872,-3.40387 0.0191,-4.936932 0.40526,-2.08621 1.31613,-3.856945 2.78151,-5.40725 0.68739,-0.72723 1.63685,-1.575549 1.76339,-1.575549 0.0348,0 -0.10212,0.495697 -0.30426,1.101549 -0.56939,1.706537 -0.74045,2.897753 -0.6861,4.777576 0.0346,1.195828 0.0924,1.763847 0.25614,2.514015 0.11631,0.533024 0.22934,0.987001 0.25118,1.008838 0.0218,0.02184 0.12193,-0.267516 0.22242,-0.643004 0.99737,-3.726415 3.4167,-7.694736 6.47285,-10.617145 2.96237,-2.832725 7.14223,-5.28518 11.61745,-6.816315 3.59989,-1.231651 7.11592,-1.955267 11.236287,-2.312485 2.20182,-0.190886 6.32765,-0.105413 8.75433,0.18136 1.67759,0.198248 4.41373,0.790785 4.76988,1.03296 0.1549,0.105327 0.21722,0.06457 -1.50846,0.986557 -1.54947,0.827841 -2.69666,1.564566 -3.69591,2.373501 -0.80461,0.651368 -2.5961,2.484289 -2.46941,2.526519 0.0484,0.01614 0.66368,-0.105179 1.36723,-0.269602 4.73541,-1.106675 9.24461,-1.277599 13.59532,-0.515339 2.20969,0.387144 2.90817,0.590564 6.48641,1.889034 3.04694,1.105674 4.91238,1.687762 6.81672,2.12708 2.0221,0.466481 2.88678,0.579647 4.81138,0.629688 1.86201,0.04841 3.17471,-0.06159 4.69393,-0.393332 0.40416,-0.08826 0.70807,-0.11914 0.70807,-0.07196 0,0.267787 -0.90102,1.814906 -1.54049,2.645138 l -0.17217,0.223536 0.74904,0.195817 c 2.84887,0.744756 5.82599,2.198018 8.14145,3.97419 1.13574,0.871221 3.14867,2.84522 3.93672,3.86058 1.35751,1.749099 2.84722,4.566473 3.56057,6.733863 0.408,1.23965 0.48861,1.56759 0.38531,1.56759 -0.0248,0 -0.3061,-0.13146 -0.62516,-0.29214 -0.71742,-0.36129 -2.05185,-0.77829 -3.02512,-0.94533 -0.68925,-0.11829 -2.10703,-0.20064 -2.17679,-0.12644 -0.0174,0.0185 0.56459,1.01846 1.29324,2.22217 1.51417,2.5014 2.71862,4.649028 3.27209,5.834418 0.79549,1.70372 1.62732,4.0814 2.08234,5.9521 0.25788,1.06019 0.6126,3.30776 0.54075,3.42626 -0.0215,0.0354 -0.42297,0.0644 -0.89223,0.0644 -0.9871,0 -0.90288,-0.12996 -0.76693,1.1835 0.0474,0.45838 0.10383,1.00722 0.1253,1.21964 0.16219,1.60446 0.23453,4.1643 0.19039,6.73739 -0.088,5.12836 -0.57983,8.90797 -1.85265,14.23624 -0.15921,0.66649 -0.15915,0.67621 0.005,0.71915 0.35858,0.0938 1.34056,0.61607 1.78897,0.95153 1.27775,0.95589 2.23832,2.6981 2.61032,4.73439 0.49343,2.701 0.26504,5.86462 -0.76212,10.55668 -1.40387,6.41292 -2.97212,10.59434 -5.07035,13.51903 -1.60199,2.23299 -3.4386,3.54276 -5.44904,3.88597 l -0.37713,0.0644 -0.19296,1.45722 c -0.9537,7.20208 -2.09823,11.39752 -4.31936,15.83326 -1.41188,2.81959 -2.85007,4.96376 -5.75677,8.58259 -1.80851,2.2516 -2.82261,3.38358 -6.25419,6.98111 -4.87736,5.11325 -8.37531,7.71767 -13.13622,9.78067 -2.61607,1.1336 -5.53949,1.87385 -8.88306,2.24932 -1.13646,0.12762 -5.08035,0.23429 -6.00787,0.1625 z m -7.17894,-18.06183 c 0.72767,-0.11807 1.42236,-0.48227 1.99108,-1.04383 0.55078,-0.54386 0.88372,-1.12394 1.07611,-1.87491 0.26882,-1.04933 0.0162,-1.68799 -1.17426,-2.96839 -1.06366,-1.14403 -1.31297,-1.457 -1.57291,-1.97452 -0.4083,-0.81291 -0.25033,-1.73837 0.36714,-2.15083 0.47297,-0.31594 0.79557,-0.32847 2.11002,-0.0819 2.23272,0.41876 3.54381,0.5063 6.87074,0.45876 3.0849,-0.0441 3.70022,-0.0967 5.83624,-0.49884 0.87413,-0.16457 1.06331,-0.17591 1.40617,-0.0843 0.68996,0.1844 1.0406,0.67179 1.03902,1.44423 -0.002,0.74894 -0.44756,1.46139 -1.83232,2.92678 -1.12519,1.1907 -1.35403,1.71221 -1.1814,2.69226 0.27207,1.54456 1.60099,2.88417 3.1433,3.16859 2.18238,0.40244 5.43439,-1.07072 7.81262,-3.53913 2.71774,-2.82079 4.07953,-5.6417 4.07267,-8.43645 -0.002,-0.85533 -0.10376,-1.60336 -0.39164,-2.88153 -0.55641,-2.47051 -1.0712,-3.77971 -1.72214,-4.37973 -0.88599,-0.81668 -1.85988,-1.02058 -8.81244,-1.84509 -6.41916,-0.76125 -6.75482,-0.83289 -8.73628,-1.86448 l -1.34021,-0.69775 -0.41924,0.26681 c -0.65973,0.41987 -1.92043,1.02565 -2.61581,1.25693 -0.75649,0.2516 -2.19942,0.49543 -4.36916,0.73833 -0.8733,0.0978 -1.89678,0.21529 -2.27442,0.26117 -0.377637,0.0459 -1.497667,0.18137 -2.488967,0.30107 -4.32089,0.52177 -5.80261,0.87285 -6.56076,1.55449 -0.72868,0.65514 -1.19958,1.83058 -1.76603,4.40825 -0.69208,3.14941 -0.35968,5.55461 1.10651,8.00653 1.01134,1.69126 3.06398,3.96859 4.48481,4.97574 1.40258,0.99421 3.02394,1.68834 4.34476,1.86006 0.772727,0.10047 0.986697,0.1007 1.596797,0.002 z m 6.49233,-14.55798 c -5.38768,-0.25949 -9.772987,-0.83047 -13.081317,-1.70322 -1.50207,-0.39625 -1.94327,-0.77228 -1.87166,-1.59516 0.0401,-0.46138 0.25433,-0.79159 0.63289,-0.97577 0.39378,-0.19158 0.63304,-0.16816 2.09831,0.20541 3.90412,0.99533 8.067737,1.49356 13.423347,1.60627 5.90082,0.12418 12.02051,-0.49578 16.27235,-1.64848 1.30397,-0.35352 1.75134,-0.35899 2.10806,-0.0258 0.67058,0.62639 0.59769,1.55595 -0.1559,1.98812 -0.53944,0.30937 -3.2031,0.94858 -5.42921,1.30288 -4.21727,0.6712 -10.16232,1.03041 -13.99687,0.84573 z m -23.902377,-1.2516 c 10e-4,-2.76118 0.43828,-4.99114 1.28579,-6.56236 0.67596,-1.25318 1.3962,-2.02206 2.73385,-2.91843 0.96508,-0.64671 1.91671,-1.04174 4.0999,-1.70191 2.41773,-0.73109 3.03932,-0.94934 6.04151,-2.12127 3.415727,-1.33337 5.847677,-2.12337 6.536557,-2.12337 0.13406,0 0.24375,-0.0353 0.24375,-0.0785 0,-0.12498 -0.74568,-0.74736 -1.0964,-0.91511 -0.45919,-0.21964 -0.7331,-0.18452 -1.66441,0.21337 -1.17454,0.50182 -1.64503,0.58274 -2.360967,0.40607 -1.42072,-0.3506 -2.4766,-1.47367 -3.00141,-3.19241 -0.24702,-0.80899 -0.21033,-2.13052 0.0827,-2.97948 0.12663,-0.36683 0.23024,-0.68498 0.23024,-0.707 0,-0.022 -0.22154,0.10167 -0.49231,0.27488 -1.60404,1.0261 -4.33741,2.02049 -6.71713,2.44367 -0.99279,0.17655 -4.69434,0.14908 -5.79278,-0.043 -5.23309,-0.91501 -9.5989,-3.7597 -12.53521,-8.16773 -1.51268,-2.27085 -2.44552,-4.58009 -3.08569,-7.63858 -0.15809,-0.75527 -0.29037,-1.31409 -0.29395,-1.24181 -0.0265,0.53489 0.54901,6.37275 0.76971,7.80755 0.6438,4.18531 2.06195,11.69015 2.57414,13.62235 0.95002,3.58391 2.67908,6.84803 5.3017,10.00862 1.23623,1.48982 5.30996,5.42082 6.2946,6.07408 0.20537,0.13624 0.4796,0.24788 0.60941,0.24808 l 0.23603,3.7e-4 z m 53.670977,0.51774 c 1.10054,-0.77372 5.51068,-5.13589 6.81749,-6.74334 2.08857,-2.56906 3.75285,-5.69229 4.61104,-8.65319 0.56859,-1.96172 1.56584,-6.96837 2.51972,-12.6501 0.44279,-2.63745 0.57126,-3.69648 0.78088,-6.437 0.0957,-1.25093 0.19476,-2.48485 0.22017,-2.74206 0.0718,-0.72674 -0.012,-0.49036 -0.25736,0.72594 -0.91488,4.53508 -2.67055,7.92646 -5.62013,10.85626 -2.71743,2.69922 -5.95555,4.36275 -9.95974,5.11664 -1.1139,0.20973 -4.15167,0.25705 -5.45985,0.0851 -1.2499,-0.16433 -2.68694,-0.5185 -3.85234,-0.94945 -0.8992,-0.33252 -2.83091,-1.24534 -3.45452,-1.63243 -0.41012,-0.25456 -0.4128,-0.2535 -0.23901,0.0949 0.24031,0.48173 0.41409,1.3621 0.41286,2.09161 -0.004,2.26111 -1.41779,4.20433 -3.31344,4.55368 -0.63347,0.11674 -1.06864,0.028 -2.16979,-0.44247 -0.96988,-0.41437 -1.34061,-0.44083 -1.862,-0.13288 -0.41634,0.2459 -0.96633,0.78912 -0.86088,0.85027 0.0395,0.0229 0.259,0.0688 0.48776,0.102 1.08362,0.15721 3.35089,0.92309 6.92225,2.33829 1.7111,0.67805 3.29241,1.22107 6.4416,2.21204 2.59067,0.81522 4.19088,1.90194 5.37549,3.65055 0.93696,1.38305 1.40727,3.09255 1.57693,5.73186 0.13997,2.17731 0.13757,2.16419 0.39463,2.16419 0.11963,0 0.33934,-0.0857 0.48824,-0.19033 z m 16.46122,-14.51621 c 1.56051,-0.78604 2.9363,-2.39475 4.23139,-4.94776 0.48813,-0.96224 1.24399,-2.82546 1.56679,-3.8622 1.76308,-5.66244 2.8183,-11.30858 2.64664,-14.1614 -0.16766,-2.78638 -0.92269,-4.52368 -2.29686,-5.28503 -0.41152,-0.22799 -0.52675,-0.25073 -1.26801,-0.25014 -0.77801,6.2e-4 -0.8468,0.0163 -1.50196,0.34261 -0.87689,0.43672 -2.18745,1.67686 -2.19042,2.07271 -0.001,0.13456 -0.0581,1.07504 -0.1269,2.08994 -0.0688,1.0149 -0.12473,1.96113 -0.1243,2.10275 7.1e-4,0.23597 0.009,0.24314 0.0985,0.0858 0.0538,-0.0944 0.33068,-0.48062 0.61534,-0.85826 1.06207,-1.40896 2.029,-2.25762 3.1117,-2.73112 0.63686,-0.27852 0.83403,-0.28402 1.26773,-0.0354 0.43649,0.25024 0.67429,0.68299 0.62725,1.14146 -0.0522,0.50835 -0.26657,0.77222 -0.95214,1.17172 -1.07909,0.62881 -1.94524,1.58797 -2.91316,3.22597 -0.25685,0.43467 -0.55336,1.00307 -0.65891,1.26312 l -0.1919,0.47282 0.39254,0.58508 c 0.60484,0.90149 1.04583,1.77564 1.37223,2.72009 0.41696,1.20647 0.52421,1.97386 0.45913,3.28508 -0.0995,2.00452 -0.40009,2.63933 -1.29766,2.7405 -0.43325,0.0488 -0.78493,-0.111 -1.11975,-0.50892 -0.25743,-0.30593 -0.26001,-0.41505 -0.0491,-2.0743 0.0958,-0.75392 0.008,-1.71701 -0.22084,-2.41598 -0.17513,-0.53542 -0.78162,-1.75944 -0.87178,-1.75944 -0.0369,0 -0.13551,0.9752 -0.21924,2.16712 -0.0837,1.19192 -0.16945,2.36023 -0.19048,2.59626 -0.021,0.23602 -0.13525,1.72297 -0.25381,3.30432 -0.26514,3.53633 -0.53686,6.85839 -0.60549,7.40255 -0.0283,0.22422 -0.0188,0.40756 0.021,0.40741 0.0398,-1.4e-4 0.32894,-0.12947 0.64246,-0.2874 z m -86.736727,-0.16292 c -0.0502,-0.36521 -0.3532,-3.90962 -0.59611,-6.97342 -0.16591,-2.09253 -0.36055,-4.80346 -0.49142,-6.84467 -0.0568,-0.88509 -0.1272,-1.60925 -0.15656,-1.60925 -0.0967,0 -0.66606,1.14712 -0.87323,1.75944 -0.17259,0.51007 -0.20328,0.76926 -0.20328,1.71654 0,0.62722 0.0512,1.34651 0.11703,1.64281 0.13979,0.62959 0.0529,0.99277 -0.324,1.35384 -0.25985,0.24896 -0.77252,0.37125 -1.15446,0.27539 -0.37921,-0.0952 -0.73079,-0.46962 -0.86487,-0.92111 -0.22788,-0.76736 -0.34776,-2.48092 -0.23356,-3.33865 0.19197,-1.44185 0.99809,-3.38384 1.90112,-4.57989 l 0.3795,-0.50264 -0.42157,-0.82708 c -0.59113,-1.15971 -1.50218,-2.49177 -2.13618,-3.1233 -0.29598,-0.29483 -0.82775,-0.70571 -1.18171,-0.91306 -0.75777,-0.44391 -1.01633,-0.77075 -1.01633,-1.28473 0,-0.63084 0.40465,-1.15278 0.97697,-1.26015 0.88059,-0.1652 2.70852,1.18248 4.05874,2.99238 0.73849,0.98991 0.68322,1.18027 0.49847,-1.71667 l -0.13037,-2.04437 -0.75167,-0.73683 c -0.56845,-0.55724 -0.9173,-0.8187 -1.43119,-1.07268 -0.63003,-0.31138 -0.73301,-0.33585 -1.41382,-0.336 -1.00091,-2.1e-4 -1.38898,0.16125 -2.05528,0.85514 -1.45284,1.51298 -1.93697,4.28392 -1.42507,8.1565 0.37815,2.86078 1.72854,8.49014 2.67649,11.15747 1.56219,4.39568 3.43474,7.21893 5.46672,8.2422 0.78529,0.39546 0.84851,0.39005 0.78564,-0.0672 z m 44.369107,-1.7082 c 0.66226,-0.14242 1.44873,-0.56338 2.08337,-1.11514 1.93388,-1.68132 2.42211,-1.96676 3.4712,-2.02947 0.78105,-0.0467 1.19259,0.0446 2.27264,0.50433 0.76238,0.32449 0.80943,0.33376 1.0926,0.21545 0.66068,-0.27605 1.04513,-1.2066 0.97303,-2.35517 -0.0479,-0.76384 -0.28508,-1.35236 -0.83528,-2.07301 -0.33993,-0.44525 -0.3583,-0.49843 -0.32358,-0.93678 0.0314,-0.39704 0.08,-0.50431 0.33329,-0.73643 l 0.29648,-0.27171 -0.84201,-0.88051 c -2.08936,-2.18489 -3.68333,-4.89695 -4.78339,-8.13865 -0.84115,-2.47877 -1.52911,-6.12737 -1.29124,-6.84814 0.0532,-0.1611 0.24976,-0.47733 0.43687,-0.70273 0.6232,-0.75073 0.74236,-1.67519 0.30175,-2.34099 -0.26879,-0.40618 -1.18451,-0.88343 -2.06998,-1.07884 -0.82582,-0.18224 -3.15599,-0.2563 -4.10053,-0.13031 -2.08011,0.27745 -3.14689,1.00076 -3.15041,2.13611 -0.002,0.51422 0.12143,0.80085 0.63095,1.46989 l 0.35464,0.46568 -0.008,0.86463 c -0.0178,1.82392 -0.87706,5.38591 -1.89097,7.83899 -1.03249,2.49803 -2.38851,4.58432 -4.18272,6.43529 l -0.852007,0.87896 0.22883,0.17999 c 0.605587,0.47636 0.632537,1.04205 0.0876,1.83796 -0.68924,1.00661 -0.84972,1.4384 -0.8455,2.27491 0.005,1.06892 0.3844,1.83242 1.05044,2.11611 0.259227,0.11042 0.324237,0.102 0.815357,-0.10559 1.46193,-0.61792 1.6065,-0.6553 2.39493,-0.61914 0.66609,0.0305 0.82153,0.072 1.45905,0.38944 0.50684,0.25234 0.94743,0.56918 1.52092,1.09374 0.86892,0.79481 1.6706,1.31248 2.39049,1.54364 0.84522,0.27141 2.04594,0.31872 2.98165,0.11749 z m -22.100367,-6.98444 c 3.74622,-0.66765 7.46674,-2.89273 9.61417,-5.74981 1.641937,-2.18455 2.597367,-4.3238 3.148437,-7.04953 0.2222,-1.09905 0.23995,-1.33507 0.2378,-3.16173 -0.002,-1.7324 -0.0254,-2.06972 -0.19066,-2.756 -0.34532,-1.43382 -0.88978,-2.7262 -1.57222,-3.73198 -0.743987,-1.09651 -2.172717,-2.40712 -3.483707,-3.1957 -2.90512,-1.74748 -8.08091,-2.76338 -12.56012,-2.4653 -2.39379,0.1593 -4.53249,0.56762 -6.17951,1.17979 -4.69357,1.74453 -7.02763,4.86457 -7.38552,9.87251 -0.2744,3.83959 1.0587,8.13993 3.47845,11.22087 0.70804,0.90151 2.22069,2.37441 3.11692,3.03502 2.05358,1.51369 4.68708,2.56106 7.27006,2.8914 1.19,0.15218 3.39547,0.10836 4.5059,-0.0895 z m -1.80236,-13.59679 c -1.78128,-0.3352 -3.18687,-1.65895 -3.64962,-3.43711 -0.10587,-0.40679 -0.13463,-0.77869 -0.10622,-1.37323 0.0371,-0.77669 0.10347,-1.02202 0.55112,-2.03772 0.0693,-0.1572 -0.53108,0.0712 -1.42015,0.54017 -1.34569,0.70989 -2.52561,1.64312 -3.70259,2.92846 -0.32821,0.35842 -0.55295,0.52942 -0.72953,0.55509 -1.05065,0.15271 -1.82532,-0.73252 -1.46551,-1.67468 0.15399,-0.40323 1.49565,-1.7995 2.41188,-2.51007 3.17847,-2.46501 7.18153,-3.52676 10.9429,-2.90244 2.79119,0.46329 5.20615,1.77645 7.31581,3.97805 0.49755,0.51924 0.98954,1.11946 1.09332,1.33382 0.24789,0.51209 0.17842,0.98026 -0.20806,1.40198 -0.23813,0.25984 -0.34276,0.30745 -0.74993,0.34122 -0.61921,0.0513 -0.77699,-0.0423 -1.48372,-0.88104 -0.61452,-0.72928 -1.36294,-1.43269 -2.06405,-1.93991 -0.50291,-0.36383 -1.6233,-1.02111 -1.74057,-1.02111 -0.0449,0 0.0118,0.2575 0.12605,0.57222 0.52525,1.44705 0.27589,3.12664 -0.64524,4.34605 -0.51534,0.68221 -1.47522,1.3739 -2.23107,1.60771 -0.64993,0.20104 -1.67476,0.27981 -2.24482,0.17254 z m 48.724267,13.56384 c 1.34238,-0.25075 2.61189,-0.68579 4.01622,-1.3763 1.94923,-0.95844 3.10044,-1.81943 4.68361,-3.50285 2.74614,-2.92006 4.43479,-7.62663 4.25675,-11.86432 -0.21047,-5.00932 -2.5466,-8.29943 -7.15733,-10.0801 -2.52065,-0.97347 -6.30199,-1.47343 -9.50828,-1.25715 -6.33089,0.42704 -10.5863,2.2939 -12.93921,5.67646 -1.87843,2.70045 -2.35665,6.5908 -1.30891,10.64808 1.22046,4.7261 4.22393,8.42778 8.4912,10.46515 1.62051,0.7737 3.17059,1.22678 4.97033,1.4528 1.01925,0.128 3.40364,0.0422 4.49562,-0.16177 z m -5.35458,-13.61106 c -1.51772,-0.32991 -2.773,-1.43055 -3.33981,-2.92837 -0.3911,-1.03348 -0.36995,-2.35428 0.0535,-3.34219 0.0898,-0.20941 0.14373,-0.38074 0.11993,-0.38074 -0.10333,0 -0.81901,0.39923 -1.4536,0.81086 -0.76512,0.4963 -2.06078,1.68705 -2.60928,2.39802 -0.39359,0.51017 -0.69359,0.67672 -1.21888,0.67672 -0.39461,0 -0.70711,-0.19506 -0.99858,-0.62332 -0.44,-0.6465 -0.19332,-1.20699 1.12649,-2.5595 1.27045,-1.30193 2.14355,-1.94342 3.70126,-2.71943 2.03128,-1.01193 3.53876,-1.36084 5.83621,-1.35082 3.11609,0.0136 5.85785,0.96336 8.49684,2.94337 0.9577,0.71855 2.39792,2.17609 2.57939,2.61041 0.34599,0.82807 -0.2555,1.68047 -1.18044,1.67284 -0.49044,-0.004 -0.65427,-0.10759 -1.24367,-0.78607 -0.61225,-0.7048 -1.30898,-1.318 -2.1166,-1.86285 -1.133,-0.76437 -2.80206,-1.58824 -2.80206,-1.38314 0,0.0423 0.0374,0.10008 0.0832,0.12835 0.0457,0.0283 0.18315,0.36789 0.30534,0.75469 0.70707,2.23826 -0.25606,4.54635 -2.31962,5.55885 -1.00635,0.49378 -1.95459,0.61384 -3.01962,0.38232 z M 63.670623,131.26441 c 0.0909,-0.13937 0.22604,-0.2995 0.30039,-0.35584 0.13692,-0.10375 0.23164,-0.1286 1.7659,-0.46322 0.47204,-0.10295 0.88496,-0.21091 0.91758,-0.2399 0.0326,-0.029 0.16019,-0.61273 0.28349,-1.29719 0.56927,-3.16017 1.35939,-5.48169 2.93479,-8.62291 1.05334,-2.10028 0.98252,-1.69311 1.00819,-5.79597 0.0234,-3.73921 0.047,-4.03352 0.48654,-6.07851 0.21694,-1.00921 0.67534,-2.45465 1.07341,-3.38468 0.16219,-0.37892 0.27582,-0.70801 0.25253,-0.7313 -0.0233,-0.0233 -0.30421,0.16704 -0.62425,0.42298 -2.23883,1.79037 -5.12456,3.32515 -8.0237,4.26743 -1.36339,0.44313 -1.4642,0.44855 -1.40408,0.0755 0.25943,-1.60958 0.45338,-2.35437 0.77508,-2.97647 0.0795,-0.15369 0.12255,-0.30138 0.0957,-0.3282 -0.0778,-0.0778 -1.23371,0.15406 -1.32004,0.26477 -0.12332,0.15817 -0.50916,1.63952 -0.69677,2.67514 -0.35306,1.9488 -0.63753,4.31133 -0.78026,6.47991 -0.11784,1.79051 -0.0903,6.05863 0.0505,7.83821 0.25529,3.22509 0.8884,7.23868 1.58527,10.0498 0.42402,1.71049 0.43772,1.74242 0.78633,1.83298 l 0.28229,0.0733 0.0429,-1.72624 c 0.0376,-1.5139 0.0632,-1.75742 0.20811,-1.97966 z m 93.387877,3.56394 c 0.1433,-0.0535 0.23697,-0.32551 0.53548,-1.55488 1.36298,-5.61323 1.98521,-11.42422 1.75274,-16.36862 -0.10829,-2.30329 -0.51262,-6.33618 -0.64276,-6.41113 -0.009,-0.005 -0.41386,-0.0732 -0.89919,-0.15085 -2.58993,-0.41442 -6.19838,-1.50752 -8.80773,-2.66813 -0.27869,-0.12395 -0.52404,-0.20803 -0.54522,-0.18685 -0.0212,0.0212 0.0602,0.45619 0.18091,0.96667 0.44577,1.88549 0.51085,2.64873 0.5329,6.24939 0.0238,3.88595 -0.0896,3.30435 1.18291,6.06719 1.50986,3.27815 2.03004,4.81066 2.55003,7.51261 0.14332,0.74472 0.28837,1.48553 0.32235,1.64626 0.0595,0.28152 0.0853,0.29791 0.70417,0.44755 0.35333,0.0854 0.87862,0.19837 1.16731,0.25099 0.64275,0.11715 1.00683,0.32864 1.20597,0.70051 0.12611,0.23551 0.15698,0.56637 0.18482,1.98074 0.0372,1.88851 -0.0189,1.74044 0.57531,1.51855 z m -52.89011,-3.14193 c 1.48871,-0.6296 2.61566,-0.81364 5.29721,-0.86504 2.9606,-0.0568 4.77737,0.18273 6.17952,0.81458 0.27353,0.12326 0.64079,0.21497 0.87333,0.21806 0.44298,0.006 0.5935,-0.0812 2.03522,-1.17777 l 0.77864,-0.59224 -0.295,-0.32653 c -0.50308,-0.55685 -0.6782,-0.98646 -0.67853,-1.66458 -8.4e-4,-1.75379 1.20773,-2.5881 4.90605,-3.3868 3.83846,-0.82896 7.67821,-1.41839 11.26215,-1.72883 4.38803,-0.3801 7.46584,0.78232 10.75374,4.06143 0.60404,0.60242 1.16406,1.12963 1.24449,1.17157 0.25783,0.13445 4.06818,1.39638 4.10503,1.35953 0.0583,-0.0583 -0.37129,-2.06488 -0.66239,-3.09411 -0.33605,-1.18821 -1.01326,-2.84424 -2.07626,-5.07727 -1.25275,-2.63164 -1.19459,-2.33418 -1.18312,-6.05077 0.0127,-4.12471 -0.16419,-5.67228 -0.9025,-7.89484 -0.37539,-1.13004 -0.66039,-1.60538 -1.19239,-1.98874 -0.76489,-0.55119 -1.72482,-1.3114 -2.53385,-2.00668 -2.86329,-2.46066 -5.59941,-3.928426 -7.70295,-4.132186 -0.29503,-0.0286 -0.53641,-0.0336 -0.53641,-0.0113 0,0.0224 0.21041,0.44361 0.46758,0.936046 0.58887,1.12758 1.04045,2.46886 1.2159,3.61141 0.17743,1.15544 0.11373,3.10591 -0.14092,4.31523 -0.24568,1.16666 -0.28013,1.20921 -0.52021,0.64255 -1.60649,-3.79182 -4.51604,-6.93983 -8.66092,-9.370746 -0.94917,-0.55668 -2.58542,-1.369932 -2.64214,-1.313212 -0.0666,0.0666 1.32188,1.923068 2.13988,2.860978 0.39686,0.45503 1.07349,1.08587 1.65698,1.54485 0.13459,0.10586 0.22796,0.20923 0.20749,0.2297 -0.0916,0.0916 -2.11701,0.38604 -3.20749,0.46629 -4.49627,0.33088 -8.58465,0.10968 -12.65943,-0.68493 -2.7285,-0.53208 -6.03095,-1.54882 -9.09763,-2.800926 -4.485767,-1.831522 -6.521437,-2.442992 -9.269277,-2.784302 -1.15485,-0.14344 -4.37475,-0.14397 -5.27834,-8.7e-4 -4.42716,0.70112 -7.25981,1.869482 -9.79777,4.041188 -2.39931,2.05306 -3.9892,5.15068 -4.67328,9.10502 -0.16287,0.94146 -0.19237,1.53002 -0.24088,4.80629 -0.0644,4.3485 0.0352,3.82295 -1.21464,6.41043 -1.62254,3.35911 -2.15083,4.87523 -2.78431,7.99053 -0.0561,0.2757 -0.0516,0.28103 0.18618,0.22186 0.13399,-0.0333 1.08858,-0.34266 2.12131,-0.68737 l 1.8777,-0.62674 1.12624,-1.14495 c 1.33988,-1.36214 2.30908,-2.10433 3.6594,-2.80227 2.43155,-1.25682 4.4451,-1.57872 7.80895,-1.24842 5.62099,0.55193 12.14924,1.8125 13.85006,2.67438 1.694617,0.85873 2.157217,2.78714 0.957917,3.99322 -0.17439,0.17538 -0.29689,0.35155 -0.2722,0.39149 0.074,0.11972 1.96554,1.5416 2.24334,1.68632 0.36351,0.18938 0.65596,0.1685 1.26853,-0.0906 z"
       id="path1" /></g></svg>
